# xmcd CD database file
#
# Track frame offsets:
#	150
#	14524
#	32292
#	46339
#	60393
#	73572
#	90181
#	109523
#	121295
#	135293
#	148913
#	153426
#	176449
#	186265
#	214816
#	229809
#
# Disc length: 3361 seconds
#
# Revision: 0
# Processed by: cddbd v1.5.2PL0 Copyright (c) Steve Scherf et al.
# Submitted via: CDex 1.51
#
DISCID=cd0d1f10
DTITLE=Harold Jefta and The Ghoema Kings - The Amazing Cape Town Ghoema volume 2
DYEAR=2007
DGENRE=Jazz
TTITLE0=Ou Doos
TTITLE1=Sam
TTITLE2=Die Dienar
TTITLE3=Joburg
TTITLE4=Minor Blue
TTITLE5=Msugasa
TTITLE6=Plaastoe
TTITLE7=Kitty
TTITLE8=And then came Langarm
TTITLE9=Tem Hawker
TTITLE10=Presto
TTITLE11=Mr Swart
TTITLE12=Tradition
TTITLE13=Chisa
TTITLE14=Salvation
TTITLE15=Homer
EXTD=YEAR: 2007
EXTT0=
EXTT1=
EXTT2=
EXTT3=
EXTT4=
EXTT5=
EXTT6=
EXTT7=
EXTT8=
EXTT9=
EXTT10=
EXTT11=
EXTT12=
EXTT13=
EXTT14=
EXTT15=
PLAYORDER=
